<svg width="50" height="50" viewBox="0 0 50 50" fill="none" xmlns="http://www.w3.org/2000/svg">
<g id="Component 1">
<path id="Ellipse 1" d="M49.5 25C49.5 38.531 38.531 49.5 25 49.5C11.469 49.5 0.5 38.531 0.5 25C0.5 11.469 11.469 0.5 25 0.5C38.531 0.5 49.5 11.469 49.5 25Z" fill="black" stroke="white"/>
<path id="MW" d="M11.1016 15.9375L13.5977 28.9922L20.6172 15.9375H24.4141L21.4609 33H18.5781L19.5742 27.2227L21.0859 20.1094L14.0547 33H11.9688L9.35547 19.7227L8.28906 27.5273L7.33984 33H4.45703L7.42188 15.9375H11.1016ZM38.6992 28.7578L43.2461 15.9375H46.1875L39.6953 33H36.9297L35.7461 20.5781L30.5898 33H27.8008L26.6523 15.9375H29.4531L30.0156 28.6992L35.1602 15.9375H37.5859L38.6992 28.7578Z" fill="white"/>
</g>
</svg>
